<svg id="Capa_1" data-name="Capa 1" xmlns="http://www.w3.org/2000/svg" viewBox="0 0 250 259.82"><defs><style>.cls-1{fill:#00a99d;}.cls-2{fill:#ff9331;}.cls-3{opacity:0.6;}.cls-4{fill:#fff;}.cls-5{fill:#f2d4d4;}.cls-6{fill:#000072;}.cls-7{fill:#42f4d2;}.cls-8{fill:#ffb012;}.cls-9{opacity:0.2;}.cls-10{fill:#ae531e;}.cls-11{fill:#ff48a0;}.cls-12{fill:#d5b3f5;}.cls-13{fill:#ff0068;}.cls-14{fill:#fa509c;}</style></defs><title>Gatunosgaleria</title><path class="cls-1" d="M275,145.09a124.95,124.95,0,0,1-105.61,123.5h0A125.07,125.07,0,0,1,46.61,215.36,125,125,0,1,1,275,145.09Z" transform="translate(-25 -20.09)"/><path class="cls-2" d="M264.77,194.25a155.23,155.23,0,0,1-18.38,30,125.41,125.41,0,0,1-44.28,34.08l-0.79.36-0.24.1a123.36,123.36,0,0,1-25,8.16l-1.77.36-2,.38c-1,.17-1.93.33-2.91,0.49h0c-0.41,0-19.7-1.13-27.83-12.41-1.78-2.48-3.21-6.49-4-11.5C135.22,228.85,139,204,157,185.33a71.18,71.18,0,0,1,10.53-9l61.13-10.51A30.32,30.32,0,0,1,241,170C249.19,174.6,256.4,177.6,264.77,194.25Z" transform="translate(-25 -20.09)"/><g class="cls-3"><path class="cls-4" d="M264.77,194.07c-0.35.78-.72,1.56-1.1,2.35C256.39,184,249.86,181.15,242.51,177a30.35,30.35,0,0,0-12.29-4.09l-61.13,10.51a71.18,71.18,0,0,0-10.53,9C141,210.57,137,234.54,139,250c-4.51-14.17-2.54-43.49,18.07-64.85a71.18,71.18,0,0,1,10.53-9l61.13-10.51A30.33,30.33,0,0,1,241,169.76C249.19,174.42,256.4,177.42,264.77,194.07Z" transform="translate(-25 -20.09)"/></g><path class="cls-5" d="M246.4,224.22a124.92,124.92,0,0,1-72.06,43.07A53.08,53.08,0,0,1,170.76,248c0-26,18.18-47,40.6-47C226.29,201,239.34,210.32,246.4,224.22Z" transform="translate(-25 -20.09)"/><path class="cls-6" d="M169.4,270H169.3c-0.84,0-20.65-1.29-29.21-13.17-4.27-5.93-6-18.39-4.3-31a74.76,74.76,0,0,1,19.92-41.74,73.33,73.33,0,0,1,10.8-9.19,1.83,1.83,0,0,1,.74-0.3l61.13-10.51a1.82,1.82,0,0,1,.76,0,126.73,126.73,0,0,1,12.12,4c7,2.63,17,9.17,25.15,25.32a1.83,1.83,0,0,1,.08,1.45c-3.61,9.82-13.1,23.75-18.68,30.51a127.08,127.08,0,0,1-73.11,43.7c-1.6.32-3.24,0.61-5,.88Zm-1.13-91.89a69.56,69.56,0,0,0-9.93,8.5,71.08,71.08,0,0,0-18.93,39.7c-1.82,13.5.62,24.18,3.65,28.39,7.23,10,24.19,11.5,26.27,11.65,1.64-.26,3.17-0.53,4.66-0.83a123.42,123.42,0,0,0,71-42.44c5.13-6.2,14.16-19.42,17.79-28.7-7.57-14.59-16.56-20.48-22.82-22.85-6-2.26-10.14-3.46-11.36-3.79Z" transform="translate(-25 -20.09)"/><path class="cls-7" d="M240.6,172c-7.89,11.74-27.26,22.87-47.49,22.88-14.1,0-26.67-2.2-36.09-9.5a71.18,71.18,0,0,1,10.53-9l61.13-10.51A47.41,47.41,0,0,1,240.6,172Z" transform="translate(-25 -20.09)"/><path class="cls-6" d="M189.28,196.79c-12.3,0-25.31-3.83-33.37-10a1.82,1.82,0,0,1-.2-2.72,73.31,73.31,0,0,1,10.8-9.2,1.83,1.83,0,0,1,.74-0.3l61.13-10.51,0.22,0a24.3,24.3,0,0,1,13.87,4.45,1.83,1.83,0,0,1,.53,2.44c-8.81,14.76-26.95,24.14-49.75,25.73C191.93,196.75,190.61,196.79,189.28,196.79Zm-29.45-11.7C167.1,189.87,179.59,194,193,193c20.8-1.46,37.41-9.61,45.93-22.46a20.64,20.64,0,0,0-10-2.87l-60.6,10.42A70,70,0,0,0,159.84,185.09Z" transform="translate(-25 -20.09)"/><circle class="cls-8" cx="176.32" cy="179.53" r="8.21"/><g class="cls-3"><path class="cls-4" d="M209.53,199.33A8.21,8.21,0,0,0,194,203c0,0.1,0,.19,0,0.29A8.21,8.21,0,1,1,209.53,199.33Z" transform="translate(-25 -20.09)"/></g><g class="cls-9"><path class="cls-6" d="M209.53,199.62a8.21,8.21,0,1,1-16.32-1.3,8.21,8.21,0,0,0,15.26-2.74A8.13,8.13,0,0,1,209.53,199.62Z" transform="translate(-25 -20.09)"/></g><path class="cls-6" d="M201.32,209.66a10,10,0,1,1,10-10A10,10,0,0,1,201.32,209.66Zm0-16.42a6.39,6.39,0,1,0,6.39,6.39A6.39,6.39,0,0,0,201.32,193.24Z" transform="translate(-25 -20.09)"/><path class="cls-2" d="M198.68,273.82c-6.69,6.55-20.57,5.67-26.37-6.15a25,25,0,0,1-2.19-7.08h0c-0.11-.68-0.21-1.39-0.27-2.12L153,248.89s0.79-.25,2.17-0.62c8.38-2.24,38.54-8.87,45.85,9.49,0.12,0.29.23,0.59,0.33,0.9h0C203.6,265.31,202.06,270.51,198.68,273.82Z" transform="translate(-25 -20.09)"/><g class="cls-9"><path class="cls-6" d="M172.31,267.68c-1,.17-1.93.33-2.91,0.49h0c-0.41,0-19.7-1.13-27.83-12.41-1.78-2.48-3.21-6.49-4-11.5a6,6,0,0,1,.21-0.83s7.89,19.68,32.32,17.17h0a33.49,33.49,0,0,0,6,6.33c3.67,3,8.81,5.76,14.78,5.07,10-1.16,10.37-10.17,10.21-13.23,0-.63-0.09-1-0.09-1l1.13,0.54-0.79.36C208.1,278.45,181,285.47,172.31,267.68Z" transform="translate(-25 -20.09)"/></g><g class="cls-3"><path class="cls-4" d="M198.68,273.82c3.34-10.47-.68-17.52-8.63-21.7-13.1-6.89-34.91-3.85-34.91-3.85,8.38-2.24,38.54-8.87,45.85,9.49,0.12,0.29.23,0.59,0.33,0.9h0C203.6,265.31,202.06,270.51,198.68,273.82Z" transform="translate(-25 -20.09)"/></g><path class="cls-6" d="M152.88,248.63a45.75,45.75,0,0,1,6.59-2.61c1.13-.35,2.26-0.69,3.41-1s2.3-.56,3.47-0.78a54.31,54.31,0,0,1,7.08-.9,48.11,48.11,0,0,1,7.2.15,44.54,44.54,0,0,1,7.19,1.27,26,26,0,0,1,6.89,2.88,19.48,19.48,0,0,1,5.64,5.15,20.12,20.12,0,0,1,3.19,6.9,18.27,18.27,0,0,1,.47,7.67,14.32,14.32,0,0,1-3.37,7.16,15.67,15.67,0,0,1-6.56,4.34,18.4,18.4,0,0,1-7.7,1,18.53,18.53,0,0,1-13.22-7.3,19.31,19.31,0,0,1-3.36-6.73c-0.13-.61-0.26-1.21-0.37-1.82s-0.11-1.23-.15-1.84l0-.91c0-.31,0-0.61.07-0.92,0.06-.61.13-1.22,0.25-1.81a0.29,0.29,0,0,1,.55-0.07v0c1,2.2,1.73,4.32,2.71,6.28a26.14,26.14,0,0,0,3.29,5.43,16,16,0,0,0,4.77,3.88,15.5,15.5,0,0,0,5.85,1.73,14.89,14.89,0,0,0,6-.66,11.79,11.79,0,0,0,5-3.14,10.43,10.43,0,0,0,2.57-5.23,14.46,14.46,0,0,0-.37-6.12,16.46,16.46,0,0,0-2.61-5.68,15.82,15.82,0,0,0-4.59-4.18,27,27,0,0,0-12.47-3.47c-2.23-.12-4.47-0.1-6.72,0s-4.52.21-6.79,0.39c-4.55.35-9.12,0.92-13.76,1.49h0A0.28,0.28,0,0,1,152.88,248.63Z" transform="translate(-25 -20.09)"/><path class="cls-2" d="M253.35,215.06a61.6,61.6,0,0,1-7.15,9.4s7.59,28.08-11.12,31.73a10.27,10.27,0,0,1-7-.89c-7.09-3.77-9.29-16.41-6.93-27.34,0.24-1.09.52-2.18,0.85-3.23h0c1.73-5.56,4.74-10.34,9-12.77,10.64-6.14,20.45.81,22.35,2.31l0.33,0.27S253.56,214.71,253.35,215.06Z" transform="translate(-25 -20.09)"/><g class="cls-3"><path class="cls-4" d="M253.66,214.52s-0.1.19-.31,0.54c-4.56-1.09-13.52-4.68-20.33-.08s-15.4,25.32-4.92,40.32c-7.09-3.77-9.29-16.41-6.93-27.34,0.24-1.09.52-2.18,0.85-3.23h0c1.73-5.56,4.74-10.34,9-12.77,10.64-6.14,20.45.81,22.35,2.31Z" transform="translate(-25 -20.09)"/></g><g class="cls-9"><path class="cls-6" d="M246.2,224.46s7.59,28.08-11.12,31.73c-12.52,2.44-16.93-14.27-13.92-28.23l0.85-3.22c-0.21.94-6.25,28,10.27,25.19,16.81-2.87,11.15-30.76,11.15-30.76,2.46,0.11,6.72-2.6,9.9-4.93l0.33,0.27A57.3,57.3,0,0,1,246.2,224.46Z" transform="translate(-25 -20.09)"/></g><path class="cls-6" d="M232.71,258.26c-5.52,0-9.94-3.52-12.35-10-4.5-12-1.18-31.63,9.71-37.9,12.84-7.41,24.68,2.68,24.8,2.78a1.82,1.82,0,0,1,.41,2.24A57.16,57.16,0,0,1,248.2,225c0.86,3.73,3.41,17.12-2,25.82a15.65,15.65,0,0,1-10.75,7.2A14.21,14.21,0,0,1,232.71,258.26Zm7.4-47a16.23,16.23,0,0,0-8.22,2.26c-9,5.18-12,23-8.11,33.46,1.52,4.06,4.65,8.65,11,7.42a12,12,0,0,0,8.35-5.55c5.39-8.65,1.39-23.76,1.35-23.91a1.83,1.83,0,0,1,.41-1.7,63.82,63.82,0,0,0,6.41-8.26A20.27,20.27,0,0,0,240.11,211.26Z" transform="translate(-25 -20.09)"/><path class="cls-6" d="M244.32,225.34c-0.09-.68-0.21-1.4-0.33-2.1s-0.26-1.41-.42-2.11a28.47,28.47,0,0,0-1.18-4.16,29.34,29.34,0,0,1,2.85,3.41c0.44,0.6.87,1.21,1.29,1.83s0.83,1.23,1.23,1.9l0,0a1.87,1.87,0,0,1-3.19,2A1.91,1.91,0,0,1,244.32,225.34Z" transform="translate(-25 -20.09)"/><path class="cls-10" d="M266.12,122.78c0,0.36,0,.74,0,1.12-0.46,17.79-16,27.37-26.92,29.65l-37-77.1V75.08c2.47-3.14,6.91-5.26,11.66-6.07,4.9-.84,10.14-0.29,13.89,2,9.12,5.47,9.58,15.51,17.34,20.53C250.54,95,266,103.8,266.12,122.78Z" transform="translate(-25 -20.09)"/><g class="cls-3"><path class="cls-4" d="M266.12,123.15c0,0.36,0,.74,0,1.12-0.31,11.94-7.4,20.19-15.34,25,6.46-5,11.66-12.47,11.92-22.66,0-.38,0-0.75,0-1.12-0.11-19-15.58-27.77-21-31.27-7.76-5-8.21-15.05-17.34-20.53-3.75-2.25-9-2.8-13.89-2A23.46,23.46,0,0,0,203.62,74a20.62,20.62,0,0,1,10.27-4.59c4.9-.84,10.14-0.29,13.89,2,9.12,5.47,9.58,15.51,17.34,20.53C250.54,95.38,266,104.17,266.12,123.15Z" transform="translate(-25 -20.09)"/></g><g class="cls-9"><path class="cls-6" d="M266.12,122.78c0,0.36,0,.74,0,1.12-0.46,17.79-16,27.37-26.92,29.65l-37-77.1V75.08c2.47-3.14,6.91-5.26,11.66-6.07a56.48,56.48,0,0,1,8.79,6.08c7.59,6.35,12.52,15.25,18.85,22.87,2.72,3.28,5.73,6.36,7.86,10.05,2.48,4.32,3.81,9.55,7.7,12.66A11.31,11.31,0,0,0,266.12,122.78Z" transform="translate(-25 -20.09)"/></g><path class="cls-10" d="M160.45,82.91l-7.19,85.2a38.06,38.06,0,0,1-15.49-.92c-8.16-2.21-16.17-7.4-20.2-17.25-7.48-18.28,4.23-32.43,8.13-37.73,5.47-7.44,2.33-17,8.92-25.34,4.32-5.48,13.73-8.27,20.84-6.89a13.72,13.72,0,0,1,4.5,1.66Z" transform="translate(-25 -20.09)"/><g class="cls-9"><path class="cls-6" d="M160.45,82.91l-7.19,85.2a38.06,38.06,0,0,1-15.49-.92,30.19,30.19,0,0,1-7-8.48,38.37,38.37,0,0,1-4.19-22.88c0.64-5.75,2.34-11.33,4-16.86l2.53-8.24,3.12-10.15a41.18,41.18,0,0,1,3-7.75A27.1,27.1,0,0,1,150,82.56,47.76,47.76,0,0,1,155.46,80a13.72,13.72,0,0,1,4.5,1.66Z" transform="translate(-25 -20.09)"/></g><g class="cls-3"><path class="cls-4" d="M160.45,82.48l-0.08.94c-7.24-2.41-18.09.36-22.83,6.37-6.59,8.35-3.45,17.9-8.92,25.34-3.9,5.31-15.6,19.45-8.12,37.73a29,29,0,0,0,3.46,6.2,28.18,28.18,0,0,1-6.39-9.58c-7.48-18.28,4.23-32.43,8.13-37.73,5.47-7.45,2.34-17,8.92-25.35C140,79.67,153,77,160,81.2Z" transform="translate(-25 -20.09)"/></g><path class="cls-6" d="M239.19,155.37a1.82,1.82,0,0,1-1.64-1l-37-77.1a1.82,1.82,0,0,1,0-1.47A1.82,1.82,0,0,1,200.8,74c5.63-7.17,19.72-9.46,27.92-4.54,5.2,3.12,7.84,7.66,10.16,11.67,2,3.47,3.92,6.75,7.23,8.89L247,90.56c6.41,4.08,21.4,13.62,20.9,33.38a30.41,30.41,0,0,1-10.11,21.94,39.58,39.58,0,0,1-18.26,9.46A1.84,1.84,0,0,1,239.19,155.37ZM204,75.85l36.23,75.59c8.86-2.33,23.64-10.53,24.08-27.59,0.45-17.7-13.33-26.46-19.21-30.21l-0.94-.6c-4-2.62-6.26-6.43-8.4-10.12-2.31-4-4.49-7.74-8.88-10.37C220.41,68.68,208.66,70.44,204,75.85Z" transform="translate(-25 -20.09)"/><path class="cls-6" d="M147.82,170.35a39.84,39.84,0,0,1-14.7-2.8,30.41,30.41,0,0,1-17.24-16.92c-7.49-18.29,3.15-32.54,7.69-38.62l0.65-.88c2.34-3.18,3-6.92,3.6-10.88,0.75-4.57,1.6-9.76,5.36-14.52,5.92-7.51,19.91-10.36,27.72-5.66a1.82,1.82,0,0,1,.88,1.6,1.82,1.82,0,0,1,.48,1.39l-7.19,85.19a1.82,1.82,0,0,1-1.53,1.65A36.66,36.66,0,0,1,147.82,170.35Zm3.84-88.91c-5.83,0-12.39,2.47-15.61,6.55s-3.88,8.31-4.62,12.85c-0.69,4.21-1.41,8.56-4.26,12.45l-0.67.9c-4.17,5.59-13.94,18.68-7.24,35.06,6.46,15.79,23.19,18.22,32.3,17.25l7-83.53A14.8,14.8,0,0,0,151.67,81.44Z" transform="translate(-25 -20.09)"/><path class="cls-2" d="M251.73,141c-1.37,37-50.64,45.16-50.64,45.16s-54.29,9.12-68.31-28.31c-10.2-27.22,4.78-42.15,6.27-51.53s11.09-33.16,41.06-37.86a53.36,53.36,0,0,1,20.47.52,47.78,47.78,0,0,1,31.54,25c3.42,7.4,16.21,15.27,19.09,35.75A64,64,0,0,1,251.73,141Z" transform="translate(-25 -20.09)"/><path class="cls-10" d="M251.2,129.76A39.57,39.57,0,0,1,200.57,69a47.78,47.78,0,0,1,31.54,25C235.53,101.41,248.33,109.29,251.2,129.76Z" transform="translate(-25 -20.09)"/><g class="cls-3"><path class="cls-4" d="M251.73,140.06c0,0.16,0,.31,0,0.46-0.09-1.94-.26-3.79-0.51-5.54-2.88-20.47-15.67-28.35-19.09-35.75A48,48,0,0,0,206.42,76a0.13,0.13,0,0,1,0,0c-0.31,1.08-2.42,1.43-4.73.78s-3.9-2-3.63-3.1a54.4,54.4,0,0,0-17.95,0c-30,4.71-39.58,28.49-41.06,37.86-1,6.56-8.7,15.86-9.69,30.2-1.23-17.9,8.51-28.89,9.69-36.35,1.48-9.38,11.09-33.16,41.06-37.86a53.36,53.36,0,0,1,20.47.52,47.78,47.78,0,0,1,31.54,25c3.42,7.4,16.21,15.27,19.09,35.75A64,64,0,0,1,251.73,140.06Z" transform="translate(-25 -20.09)"/></g><g class="cls-9"><path class="cls-6" d="M252.09,141.74c-1.37,37-50.64,45.16-50.64,45.16S147.17,196,133.14,158.6c-3.67-9.79-4.08-18-3-24.92a53.82,53.82,0,0,0,3.39,14.7c14,37.43,68.31,28.31,68.31,28.31s45.39-7.56,50.25-40.85C252.15,137.71,252.17,139.67,252.09,141.74Z" transform="translate(-25 -20.09)"/></g><path class="cls-6" d="M187,189a98.08,98.08,0,0,1-15.06-1.13c-20.74-3.25-34.86-13.4-40.84-29.35-7.8-20.82-1.25-35,3.08-44.33,1.47-3.18,2.74-5.93,3.09-8.13,1.83-11.6,13.09-34.75,42.58-39.38a55.43,55.43,0,0,1,21.16.55c22.61,5.24,31.81,23.92,32.79,26a35.77,35.77,0,0,0,5,6.85c5.15,6.19,12.21,14.67,14.29,29.4a66.26,66.26,0,0,1,.55,11.56h0c-0.59,15.79-9.85,28.93-26.8,38A91.67,91.67,0,0,1,201.39,188,94.81,94.81,0,0,1,187,189Zm2.29-119.42a57.21,57.21,0,0,0-8.87.71c-27.41,4.31-37.85,25.66-39.54,36.35-0.43,2.7-1.8,5.66-3.39,9.09-4.32,9.34-10.24,22.12-3,41.51,5.57,14.86,18.35,24,38,27a99.7,99.7,0,0,0,28.31.12,89.64,89.64,0,0,0,24.33-8.58c15.91-8.52,24.25-20.25,24.79-34.85h0A62.61,62.61,0,0,0,249.4,130c-1.93-13.71-8.33-21.4-13.48-27.58-2.32-2.78-4.32-5.18-5.46-7.66a46.24,46.24,0,0,0-30.3-24A48.25,48.25,0,0,0,189.26,69.56ZM251.73,141h0Z" transform="translate(-25 -20.09)"/><path class="cls-6" d="M183.88,131.07l13.6-1.53a1.78,1.78,0,0,1,1.65,2.81L193,140.77a1.78,1.78,0,0,1-2.65.27l-7.52-6.88A1.78,1.78,0,0,1,183.88,131.07Z" transform="translate(-25 -20.09)"/><path class="cls-6" d="M191.75,136.89a10.89,10.89,0,0,1,.7,6.29,13.69,13.69,0,0,1-2.66,6,15.19,15.19,0,0,1-5.09,4.2,19.17,19.17,0,0,1-6.29,1.95,17.65,17.65,0,0,1-6.56-.45,15.38,15.38,0,0,1-5.89-3c-0.41-.38-0.82-0.75-1.22-1.13s-0.73-.83-1.08-1.26-0.65-.89-0.94-1.36-0.53-1-.75-1.47a9.92,9.92,0,0,1-.6-6.35,0.33,0.33,0,0,1,.6-0.07h0a42.27,42.27,0,0,0,2.93,4.8c0.26,0.35.54,0.69,0.79,1l0.84,1c0.3,0.31.63,0.59,0.92,0.89l1,0.82a15.11,15.11,0,0,0,4.49,2.37,12.55,12.55,0,0,0,5.09.55,12.11,12.11,0,0,0,4.84-1.62,15.47,15.47,0,0,0,3.84-3.34,18.6,18.6,0,0,0,2.74-4.39,26.38,26.38,0,0,0,1.7-5.36h0A0.32,0.32,0,0,1,191.75,136.89Z" transform="translate(-25 -20.09)"/><path class="cls-6" d="M221.54,133.56a11,11,0,0,1,.68,6.4c-0.12.54-.25,1.08-0.4,1.62s-0.38,1.05-.61,1.56-0.51,1-.79,1.49-0.62.94-1,1.38a15.31,15.31,0,0,1-5.24,4.17,18.15,18.15,0,0,1-3.13,1.21,16.41,16.41,0,0,1-1.62.38l-0.81.14-0.4.07-0.61,0h0.17l-0.47,0h-0.39l-0.78,0h-0.39l-0.41,0-0.81,0a17,17,0,0,1-3.21-.58,15.26,15.26,0,0,1-5.75-3.05c-0.41-.36-0.8-0.75-1.19-1.12s-0.7-.83-1.05-1.25-0.62-.89-0.91-1.35-0.5-1-.73-1.45a9.87,9.87,0,0,1-.56-6.25,0.33,0.33,0,0,1,.6-0.07h0a42.67,42.67,0,0,0,2.88,4.73c0.26,0.34.53,0.68,0.78,1s0.55,0.65.83,1l0.9,0.88c0.32,0.27.63,0.56,1,.81a15.27,15.27,0,0,0,4.39,2.38,13.15,13.15,0,0,0,2.45.57l0.63,0.06,0.32,0h1.88l0.33-.05,0.67-.1a8.82,8.82,0,0,0,1.28-.31,11.41,11.41,0,0,0,2.4-1,15.17,15.17,0,0,0,4-3.33c0.29-.32.53-0.68,0.81-1s0.49-.72.74-1.08l0.66-1.14c0.19-.4.38-0.8,0.59-1.2a27,27,0,0,0,1.73-5.43h0A0.32,0.32,0,0,1,221.54,133.56Z" transform="translate(-25 -20.09)"/><path class="cls-6" d="M207.34,150.19l-4.64,22.52-14.14.91-9.17-20.32a15,15,0,0,0,12.07-16.37A15,15,0,0,0,207.34,150.19Z" transform="translate(-25 -20.09)"/><path class="cls-6" d="M188.55,175.45a1.82,1.82,0,0,1-1.66-1.07L177.72,154A1.82,1.82,0,0,1,179,151.5a13.2,13.2,0,0,0,10.6-14.37h0a1.82,1.82,0,0,1,3.63-.41h0a13.1,13.1,0,0,0,13.95,11.64,1.83,1.83,0,0,1,1.91,2.19l-4.64,22.52a1.82,1.82,0,0,1-1.67,1.45l-14.14.91h-0.12Zm-6.62-20.94,7.76,17.21,11.49-.74,3.91-19a16.73,16.73,0,0,1-12.82-7.52A16.91,16.91,0,0,1,181.93,154.51Z" transform="translate(-25 -20.09)"/><path class="cls-11" d="M196.93,182.42h0a7.07,7.07,0,0,1-7.93-6.09l-1.24-9.5a7.07,7.07,0,0,1,6.09-7.93h0a7.07,7.07,0,0,1,7.93,6.09l1.24,9.5A7.07,7.07,0,0,1,196.93,182.42Z" transform="translate(-25 -20.09)"/><path class="cls-6" d="M196,184.3a8.9,8.9,0,0,1-8.8-7.74l-1.24-9.5a8.9,8.9,0,1,1,17.64-2.31l1.24,9.5a8.91,8.91,0,0,1-7.67,10h0A9,9,0,0,1,196,184.3Zm0.94-1.89h0Zm-2.16-21.76a5.25,5.25,0,0,0-5.21,5.93l1.24,9.5a5.25,5.25,0,0,0,5.88,4.52h0a5.25,5.25,0,0,0,4.52-5.88l-1.24-9.5A5.25,5.25,0,0,0,194.77,160.66Z" transform="translate(-25 -20.09)"/><path class="cls-6" d="M184.55,277.5c0-.4,0-0.88,0-1.33s0.05-.91.09-1.37c0.07-.92.17-1.84,0.22-2.77s0.1-1.87.1-2.82,0-1.91,0-2.91h0a0.21,0.21,0,0,1,.39-0.11,14,14,0,0,1,1.32,2.74,18,18,0,0,1,.79,3,16.24,16.24,0,0,1,.31,3,12.25,12.25,0,0,1-.09,1.53,8.63,8.63,0,0,1-.32,1.55,1.42,1.42,0,0,1-2.78-.36V277.5Z" transform="translate(-25 -20.09)"/><path class="cls-6" d="M193.46,276.26a12.47,12.47,0,0,1,0-1.25c0-.43,0-0.86,0-1.3l0.09-2.63c0-.88,0-1.78,0-2.68s-0.05-1.82-.05-2.77h0a0.21,0.21,0,0,1,.21-0.21,0.21,0.21,0,0,1,.18.1,16.79,16.79,0,0,1,2.19,5.29,15.55,15.55,0,0,1,.45,2.85,11.32,11.32,0,0,1,0,1.45,8,8,0,0,1-.22,1.49,1.42,1.42,0,0,1-2.8-.19Z" transform="translate(-25 -20.09)"/><path class="cls-6" d="M228.61,256.6a6.49,6.49,0,0,1-.56-1.22,8.78,8.78,0,0,1-.34-1.23,13.25,13.25,0,0,1-.26-2.52,15.21,15.21,0,0,1,.68-5,0.21,0.21,0,0,1,.4,0h0c0.27,0.79.48,1.57,0.73,2.33s0.47,1.5.7,2.24,0.51,1.45.72,2.17c0.11,0.36.22,0.72,0.31,1.08a8.4,8.4,0,0,1,.23,1l0,0.2A1.42,1.42,0,0,1,228.61,256.6Z" transform="translate(-25 -20.09)"/><path class="cls-6" d="M238.42,255.41a5.86,5.86,0,0,1-.46-0.59c-0.13-.19-0.25-0.38-0.36-0.58A8.31,8.31,0,0,1,237,253a11.6,11.6,0,0,1-.61-2.58,14,14,0,0,1-.1-2.62,11.66,11.66,0,0,1,.42-2.56,0.21,0.21,0,0,1,.4,0h0c0.3,0.8.54,1.58,0.84,2.33s0.59,1.48.9,2.19,0.67,1.39,1,2.07c0.16,0.34.32,0.67,0.47,1,0.08,0.16.15,0.34,0.22,0.5a4.24,4.24,0,0,1,.18.46l0.08,0.37A1.4,1.4,0,0,1,238.42,255.41Z" transform="translate(-25 -20.09)"/><ellipse class="cls-6" cx="169.1" cy="123.69" rx="9.72" ry="6.62" transform="translate(0.81 256.45) rotate(-83.03)"/><ellipse class="cls-4" cx="170.93" cy="122.11" rx="2.84" ry="1.93" transform="translate(3.98 256.87) rotate(-83.03)"/><ellipse class="cls-6" cx="208.76" cy="118.5" rx="6.62" ry="9.72" transform="translate(-47.09 32.59) rotate(-13.67)"/><ellipse class="cls-4" cx="206.76" cy="117.14" rx="1.93" ry="2.84" transform="translate(-46.82 32.08) rotate(-13.67)"/><path class="cls-12" d="M114.19,129.82s16.88-23.72,25.55-19.16-1.82,46.08-1.82,46.08Z" transform="translate(-25 -20.09)"/><path class="cls-12" d="M81.91,124.22L50.21,141s1.05-9.27,3.17-19.28c2.41-11.43,6.2-23.83,11.39-24.48,4.88-.61,9.18,6.19,12.25,13.1A104.28,104.28,0,0,1,81.91,124.22Z" transform="translate(-25 -20.09)"/><path class="cls-12" d="M136.66,268.94a124.92,124.92,0,0,1-90.05-54c0.9-1.26,1.83-2.58,2.76-3.95,2.31-3.41,4.65-7.12,6.81-11a99.84,99.84,0,0,0,6-12.66l56.11,5,2.89,12.81,4.41,19.58s8.28,8.28,11.2,22.85A53.69,53.69,0,0,1,136.66,268.94Z" transform="translate(-25 -20.09)"/><g class="cls-9"><path class="cls-6" d="M136.66,268.94a124.92,124.92,0,0,1-90.05-54c0.9-1.26,1.83-2.58,2.76-3.95a10.74,10.74,0,0,0,.69,1.19,27.38,27.38,0,0,0,14.19,10.73c5.4,1.72,11.47,1.8,16.12,5s7.08,9.27,11.87,12.47c6.14,4.08,14.21,2.5,21.56,1.93a5,5,0,0,1,2.86.37,6.39,6.39,0,0,1,1.84,2.11c3.93,5.63,12.83,6.92,18.2,2.64l0.1,0.12A53.69,53.69,0,0,1,136.66,268.94Z" transform="translate(-25 -20.09)"/></g><path class="cls-6" d="M136.66,270.77h-0.19A126.55,126.55,0,0,1,45.1,215.94a1.83,1.83,0,0,1,0-2.09,154.7,154.7,0,0,0,9.45-14.77,98.08,98.08,0,0,0,5.9-12.43,1.82,1.82,0,0,1,1.87-1.16l56.11,5a1.82,1.82,0,0,1,1.62,1.42l7.19,31.9c2.58,2.78,16.48,19.27,11.19,45.48A1.82,1.82,0,0,1,136.66,270.77ZM48.83,214.93a122.9,122.9,0,0,0,86.35,52c4.36-25.35-10.72-40.78-10.88-40.93a1.82,1.82,0,0,1-.49-0.89l-7-31.09-53.43-4.78a104.57,104.57,0,0,1-5.61,11.61A156.42,156.42,0,0,1,48.83,214.93Z" transform="translate(-25 -20.09)"/><path class="cls-13" d="M121.18,205.13c-7.35,7.32-21.35,11-36.56,8.69C72.51,212,62.27,206.69,56.17,200a99.84,99.84,0,0,0,6-12.66l56.11,5Z" transform="translate(-25 -20.09)"/><path class="cls-6" d="M93.72,216.35a62,62,0,0,1-9.38-.72c-12.12-1.86-22.89-7.12-29.52-14.43a1.82,1.82,0,0,1-.24-2.11,98.08,98.08,0,0,0,5.9-12.43,1.82,1.82,0,0,1,1.87-1.16l56.11,5a1.82,1.82,0,0,1,1.62,1.42L123,204.73a1.82,1.82,0,0,1-.49,1.69C116.06,212.82,105.52,216.35,93.72,216.35ZM58.41,199.68C64.56,205.9,74.12,210.37,84.9,212c13.64,2.09,26.94-.85,34.28-7.5L116.81,194l-53.43-4.78A102.34,102.34,0,0,1,58.41,199.68Z" transform="translate(-25 -20.09)"/><circle class="cls-8" cx="61.36" cy="197.78" r="7.76"/><g class="cls-3"><path class="cls-4" d="M94.11,217.87a7.68,7.68,0,0,1-.53,2.81,7.75,7.75,0,0,0-14.95-2.1,6.09,6.09,0,0,1,0-.71A7.76,7.76,0,1,1,94.11,217.87Z" transform="translate(-25 -20.09)"/></g><g class="cls-9"><path class="cls-6" d="M94.11,217.87a7.76,7.76,0,1,1-14.87-3.09,7.76,7.76,0,0,0,14.62,1.11A7.84,7.84,0,0,1,94.11,217.87Z" transform="translate(-25 -20.09)"/></g><path class="cls-6" d="M86.36,227.45a9.58,9.58,0,1,1,9.58-9.58A9.59,9.59,0,0,1,86.36,227.45Zm0-15.51a5.93,5.93,0,1,0,5.93,5.93A5.94,5.94,0,0,0,86.36,211.94Z" transform="translate(-25 -20.09)"/><path class="cls-12" d="M86.75,251.13c-0.57,4-2.24,7.71-5.41,10.08-10.95,8.21-17.08-12.3-14-22.8l-5.42-5.08s0.1-.13.3-0.35a16,16,0,0,1,14.12-5.07C82.81,228.88,88.15,241.17,86.75,251.13Z" transform="translate(-25 -20.09)"/><g class="cls-9"><path class="cls-6" d="M86.75,251.13c-0.57,4-2.24,7.71-5.41,10.08-10.95,8.21-17.08-12.3-14-22.8l-5.42-5.08s0.1-.13.3-0.35a14.29,14.29,0,0,1,9.73,4.44S69,253.86,76.26,256.2C80.52,257.58,84.33,254.18,86.75,251.13Z" transform="translate(-25 -20.09)"/></g><g class="cls-3"><path class="cls-4" d="M83.17,259.51c4-10.31-1.91-26.31-9.35-27.43A15.48,15.48,0,0,0,63,234.39l-1.12-1.05a16,16,0,0,1,14.42-5.42C84.88,229.19,91.43,250.15,83.17,259.51Z" transform="translate(-25 -20.09)"/></g><path class="cls-6" d="M76.45,264.75a7.56,7.56,0,0,1-4.36-1.41c-5.91-4.09-8.43-16.45-6.61-24.39l-4.7-4.41a1.65,1.65,0,0,1-.17-2.22,17.58,17.58,0,0,1,16-6c4.77,0.72,9.13,6.24,11.11,14.07,1.87,7.39,1.44,17.1-5.34,22.19A9.88,9.88,0,0,1,76.45,264.75Zm-12.2-31.49,4.21,3.94a1.65,1.65,0,0,1,.46,1.67c-2.11,7.23.54,18.62,5.06,21.75,1.89,1.31,4,1.07,6.38-.73,5.49-4.12,5.65-12.67,4.12-18.74-1.6-6.34-5.05-11.11-8.39-11.61A14.13,14.13,0,0,0,64.25,233.26Z" transform="translate(-25 -20.09)"/><path class="cls-12" d="M125.68,267.28l-12.6-3.18s-4.83,9-12.58,4.86c-3-1.58-4.93-5.63-5.58-10.32-1.37-9.74,2.76-22.23,14.25-21.15,8.94,0.84,13.13,11.83,15,20.22A69.63,69.63,0,0,1,125.68,267.28Z" transform="translate(-25 -20.09)"/><g class="cls-9"><path class="cls-6" d="M125.68,267.28l-12.6-3.18s-4.83,9-12.58,4.86c-3-1.58-4.93-5.63-5.58-10.32,0.13,0.19,4.29,6.18,9.2,6.16s10.25-4,11.14-8.6c0,0,2.76,6.91,8.94,1.51h0A69.63,69.63,0,0,1,125.68,267.28Z" transform="translate(-25 -20.09)"/></g><g class="cls-3"><path class="cls-4" d="M125.68,267.28l-0.58-.15c-1.28-8.18-5.15-23.94-15.93-25-9.21-.86-13.69,7-14.4,15.15-0.83-9.51,3.42-20.88,14.4-19.84C123.77,238.86,125.68,267.28,125.68,267.28Z" transform="translate(-25 -20.09)"/></g><path class="cls-6" d="M104.52,271.7a10.17,10.17,0,0,1-4.79-1.27c-6.38-3.38-8.08-14.92-5.62-23.16,2.37-7.94,7.92-12.11,15.22-11.42,15.82,1.48,17.93,30.11,18,31.33a1.65,1.65,0,0,1-2.05,1.71L113.86,266C112.1,268.63,108.79,271.7,104.52,271.7Zm3.28-32.62c-6.76,0-9.49,5.64-10.53,9.14-2.28,7.62-.33,17,4,19.29,6.19,3.28,10.19-3.88,10.36-4.19a1.66,1.66,0,0,1,1.86-.82l10.31,2.6c-0.81-6.55-4-25-14.78-26Q108.39,239.08,107.8,239.08Z" transform="translate(-25 -20.09)"/><path class="cls-6" d="M111,263.95c0.24-.3.51-0.7,0.76-1.07s0.49-.76.72-1.16a24.64,24.64,0,0,0,1.27-2.43,12.66,12.66,0,0,0,1.3-5.37,10.81,10.81,0,0,1,.55,2.87,18.76,18.76,0,0,1-.09,3,26.89,26.89,0,0,1-.48,3c-0.1.49-.22,1-0.36,1.46s-0.26,1-.45,1.49l0,0.07a1.86,1.86,0,1,1-3.5-1.25A1.9,1.9,0,0,1,111,263.95Z" transform="translate(-25 -20.09)"/><path class="cls-6" d="M137.91,158.57a1.83,1.83,0,0,1-1.37-.62L112.82,131a1.82,1.82,0,0,1-.12-2.26,104.86,104.86,0,0,1,9.71-11.52c7.67-7.75,13.78-10.51,18.17-8.2,2.81,1.48,6.22,5.85,3.3,26.62-1.54,10.92-4.17,21.42-4.2,21.52A1.83,1.83,0,0,1,137.91,158.57Zm-21.39-28.85,20.42,23.17c0.89-3.93,2.34-10.76,3.32-17.75,2.69-19.12-.38-22.33-1.38-22.85C134.09,109.76,123.25,120.61,116.52,129.71Z" transform="translate(-25 -20.09)"/><path class="cls-6" d="M133.8,144.42a1.83,1.83,0,0,1-1.34-.59L122,132.43a1.82,1.82,0,0,1-.18-2.25,70.44,70.44,0,0,1,4.7-6.17c4-4.63,7-6.37,9.32-5.48,2.6,1,3.14,4.93,1.85,13.66-0.8,5.43-2,10.6-2.08,10.82A1.83,1.83,0,0,1,133.8,144.42ZM125.64,131l7.15,7.77c1.68-8,2.38-15.15,1.59-16.84C132.94,122.15,129,126.21,125.64,131Z" transform="translate(-25 -20.09)"/><path class="cls-6" d="M137.91,158.57a1.83,1.83,0,0,1-1.37-.62L112.82,131a1.82,1.82,0,0,1-.12-2.26,104.86,104.86,0,0,1,9.71-11.52c7.67-7.75,13.78-10.51,18.17-8.2,2.81,1.48,6.22,5.85,3.3,26.62-1.54,10.92-4.17,21.42-4.2,21.52A1.83,1.83,0,0,1,137.91,158.57Zm-21.39-28.85,20.42,23.17c0.89-3.93,2.34-10.76,3.32-17.75,2.69-19.12-.38-22.33-1.38-22.85C134.09,109.76,123.25,120.61,116.52,129.71Z" transform="translate(-25 -20.09)"/><path class="cls-6" d="M50.22,142.86a1.82,1.82,0,0,1-1.81-2c0-.11,1.25-10.86,3.66-21.62,4.6-20.46,9.32-23.35,12.48-23.74,4.92-.61,9.67,4.13,14.11,14.09a104.86,104.86,0,0,1,5,14.2,1.82,1.82,0,0,1-.91,2.08L51.07,142.64A1.82,1.82,0,0,1,50.22,142.86ZM65.37,99.06l-0.37,0c-1.13.14-5.13,2.06-9.36,20.9-1.55,6.89-2.61,13.79-3.16,17.78l27.29-14.48C76.75,112.65,70.66,99.06,65.37,99.06Z" transform="translate(-25 -20.09)"/><path class="cls-6" d="M59,131.07A1.82,1.82,0,0,1,57.24,129c0-.22.7-5.49,1.87-10.86C61,109.54,62.88,106,65.65,106h0c2.53,0,4.69,2.68,6.79,8.41a70.39,70.39,0,0,1,2.22,7.43,1.82,1.82,0,0,1-1,2l-13.84,7A1.82,1.82,0,0,1,59,131.07Zm6.74-21.33c-1.34,1.32-3.2,8.26-4.45,16.31l9.43-4.75C69.32,115.64,67.1,110.48,65.79,109.74Z" transform="translate(-25 -20.09)"/><path class="cls-6" d="M50.22,142.86a1.82,1.82,0,0,1-1.81-2c0-.11,1.25-10.86,3.66-21.62,4.6-20.46,9.32-23.35,12.48-23.74,4.92-.61,9.67,4.13,14.11,14.09a104.86,104.86,0,0,1,5,14.2,1.82,1.82,0,0,1-.91,2.08L51.07,142.64A1.82,1.82,0,0,1,50.22,142.86ZM65.37,99.06l-0.37,0c-1.13.14-5.13,2.06-9.36,20.9-1.55,6.89-2.61,13.79-3.16,17.78l27.29-14.48C76.75,112.65,70.66,99.06,65.37,99.06Z" transform="translate(-25 -20.09)"/><path class="cls-14" d="M123.31,131.19s8.21-12.32,11.86-10.95-1.37,22.35-1.37,22.35Z" transform="translate(-25 -20.09)"/><path class="cls-14" d="M72.89,122.28s-3.34-14.42-7.23-14.43S59,129.25,59,129.25Z" transform="translate(-25 -20.09)"/><path class="cls-6" d="M133.8,143.78a1.18,1.18,0,0,1-.87-0.38L122.44,132a1.18,1.18,0,0,1-.11-1.45c2-3.07,9.06-13,13.26-11.4,1.57,0.59,3,2.59,1.44,13-0.8,5.41-2.06,10.71-2.07,10.77A1.18,1.18,0,0,1,133.8,143.78Zm-9-12.7,8.33,9.06c0.42-1.94,1-4.94,1.49-8,1.47-9.71.12-10.79,0.11-10.8C133.2,120.76,128.41,125.88,124.81,131.08Z" transform="translate(-25 -20.09)"/><path class="cls-6" d="M59,130.43a1.18,1.18,0,0,1-1.17-1.33c0-.05.7-5.47,1.86-10.81C62,108.06,64,106.67,65.65,106.67h0c4.49,0,7.55,11.75,8.38,15.34a1.18,1.18,0,0,1-.62,1.32l-13.84,7A1.18,1.18,0,0,1,59,130.43ZM65.65,109S64,109.57,62,119.17c-0.65,3-1.14,6-1.43,8l11-5.53C70,115.51,67.32,109,65.65,109Z" transform="translate(-25 -20.09)"/><g class="cls-9"><path class="cls-6" d="M81.91,124.22L50.21,141s1.05-9.27,3.17-19.28C59,117.6,68.09,111.88,77,110.38A104.28,104.28,0,0,1,81.91,124.22Z" transform="translate(-25 -20.09)"/></g><g class="cls-9"><path class="cls-6" d="M114.87,128.51l23.9,26.77s2.23-9.06,3.72-19.18c-3.85-5.85-10.37-14.37-18.23-18.87A104.28,104.28,0,0,0,114.87,128.51Z" transform="translate(-25 -20.09)"/></g><path class="cls-12" d="M141,172.56c-4.1,27.66-28.52,37.74-56.18,33.63s-48.1-20.83-44-48.5A50.64,50.64,0,0,1,141,172.56Z" transform="translate(-25 -20.09)"/><g class="cls-3"><path class="cls-4" d="M140.16,172.43q-0.19,1.29-.44,2.53a50.69,50.69,0,0,0-54.89-55.34h0c0.14,1.29-1.87,2.57-4.51,2.86-2.16.24-4.06-.26-4.74-1.16A50.63,50.63,0,0,0,39.67,160c0.08-.82.18-1.64,0.31-2.48A50.64,50.64,0,0,1,140.16,172.43Z" transform="translate(-25 -20.09)"/></g><g class="cls-9"><path class="cls-6" d="M142.28,172.7c-4.1,27.66-28.52,37.74-56.18,33.64C59.51,202.39,39.59,186.78,41.73,161c1.85,21.42,20.39,34.46,44.37,38,27.66,4.1,52.08-6,56.18-33.64,0.19-1.28.33-2.55,0.42-3.82A50.84,50.84,0,0,1,142.28,172.7Z" transform="translate(-25 -20.09)"/></g><path class="cls-6" d="M96.47,208.91a81.17,81.17,0,0,1-11.9-.91c-14.72-2.18-26.8-7.69-34.94-15.94C40.69,183,37,171,39,157.43a52.46,52.46,0,1,1,103.79,15.4h0c-2,13.6-9,24-20.19,30.07C115.29,206.88,106.39,208.91,96.47,208.91Zm-5.57-92.6A48.89,48.89,0,0,0,42.65,158c-4.29,28.95,19.12,43,42.46,46.42s49.82-3.15,54.11-32.1A48.84,48.84,0,0,0,90.91,116.31ZM141,172.56h0Z" transform="translate(-25 -20.09)"/><path class="cls-6" d="M87.22,162.4l8.3,0.69a1.09,1.09,0,0,1,.65,1.88l-4.62,4.31a1.09,1.09,0,0,1-1.61-.15l-3.68-5A1.09,1.09,0,0,1,87.22,162.4Z" transform="translate(-25 -20.09)"/><path class="cls-6" d="M73.2,166.43a27.2,27.2,0,0,0,1.58,3,14.75,14.75,0,0,0,1.74,2.32,9.83,9.83,0,0,0,2.15,1.81,6,6,0,0,0,2.72.84h0.68a5.23,5.23,0,0,0,.72-0.07,6.76,6.76,0,0,0,1.36-.36,9.38,9.38,0,0,0,2.42-1.38,12.14,12.14,0,0,0,2-2c0.65-.77,1.29-1.6,2.17-2.68h0a0.36,0.36,0,0,1,.51-0.05,0.37,0.37,0,0,1,.09.11,5.38,5.38,0,0,1,.21,4.17,8.63,8.63,0,0,1-2.43,3.53,9.66,9.66,0,0,1-3.81,2.06,10.78,10.78,0,0,1-2.13.38,8.66,8.66,0,0,1-1.06,0l-0.51,0H81.37l-0.33,0A12.94,12.94,0,0,1,76.93,177a9.46,9.46,0,0,1-3.42-2.63,8.12,8.12,0,0,1-1.7-3.91,6,6,0,0,1,.79-4,0.34,0.34,0,0,1,.6,0h0Z" transform="translate(-25 -20.09)"/><path class="cls-6" d="M91.38,168a27.21,27.21,0,0,0,1.56,3,14.73,14.73,0,0,0,1.71,2.29,10.09,10.09,0,0,0,2.09,1.8,6,6,0,0,0,2.64.89l0.14,0h0.58a5.6,5.6,0,0,0,.73-0.06,6.71,6.71,0,0,0,1.39-.34,9.22,9.22,0,0,0,2.48-1.37,11.91,11.91,0,0,0,2.06-2c0.66-.78,1.31-1.62,2.2-2.71h0a0.36,0.36,0,0,1,.51-0.05,0.37,0.37,0,0,1,.09.11,5.39,5.39,0,0,1,.18,4.23,8.68,8.68,0,0,1-2.51,3.56,9.73,9.73,0,0,1-3.9,2,11.12,11.12,0,0,1-2.17.34,9.15,9.15,0,0,1-1.09,0l-0.54,0H99.27l-0.43-.06,0.14,0a12.91,12.91,0,0,1-4.05-1.19,9.33,9.33,0,0,1-3.32-2.65A8.09,8.09,0,0,1,90,171.88a6,6,0,0,1,.79-4,0.34,0.34,0,0,1,.6,0h0Z" transform="translate(-25 -20.09)"/><path class="cls-6" d="M88.93,197.28a6.42,6.42,0,0,1-.66,0c-3.48-.36-6.33-3.49-7.82-8.59a31.41,31.41,0,0,1-.88-11.78c0-.28.06-0.54,0.09-0.81a1.82,1.82,0,0,1,1.92-1.6,7.25,7.25,0,0,0,7.68-6.66h0a1.82,1.82,0,0,1,3.64.31h0a7.24,7.24,0,0,0,6.48,7.85,1.82,1.82,0,0,1,1.63,1.93c0,0.38-.06.77-0.1,1.16a31.42,31.42,0,0,1-3.21,11.3C95.37,194.78,92.2,197.28,88.93,197.28Zm-5.8-19.21a27.64,27.64,0,0,0,.83,9.57c1,3.55,2.78,5.78,4.68,6s4.09-1.66,5.83-5a27.82,27.82,0,0,0,2.74-9.4A10.84,10.84,0,0,1,90.56,174,10.86,10.86,0,0,1,83.13,178.06Z" transform="translate(-25 -20.09)"/><path class="cls-6" d="M88.93,197.28a6.42,6.42,0,0,1-.66,0c-3.48-.36-6.33-3.49-7.82-8.59a1.82,1.82,0,0,1,.14-1.36A9.35,9.35,0,0,1,97.83,189a1.82,1.82,0,0,1-.13,1.37C95.37,194.78,92.2,197.28,88.93,197.28Zm-4.74-8.9c1.05,3.11,2.69,5.05,4.45,5.23s3.78-1.41,5.44-4.28A5.7,5.7,0,0,0,84.19,188.38Z" transform="translate(-25 -20.09)"/><path class="cls-6" d="M96.47,208.91a81.17,81.17,0,0,1-11.9-.91c-14.72-2.18-26.8-7.69-34.94-15.94C40.69,183,37,171,39,157.43a52.46,52.46,0,1,1,103.79,15.4h0c-2,13.6-9,24-20.19,30.07C115.29,206.88,106.39,208.91,96.47,208.91Zm-5.57-92.6A48.89,48.89,0,0,0,42.65,158c-4.29,28.95,19.12,43,42.46,46.42s49.82-3.15,54.11-32.1A48.84,48.84,0,0,0,90.91,116.31ZM141,172.56h0Z" transform="translate(-25 -20.09)"/><path class="cls-6" d="M87.22,162.4l8.3,0.69a1.09,1.09,0,0,1,.65,1.88l-4.62,4.31a1.09,1.09,0,0,1-1.61-.15l-3.68-5A1.09,1.09,0,0,1,87.22,162.4Z" transform="translate(-25 -20.09)"/><path class="cls-6" d="M99.18,177.76c0,0.36-.05.73-0.09,1.09a29.72,29.72,0,0,1-3,10.63c-2,3.88-4.81,6.23-7.63,5.94s-5-3.11-6.25-7.29a29.73,29.73,0,0,1-.82-11.09c0-.26.05-0.52,0.09-0.78a9.12,9.12,0,0,0,9.6-8.34A9.11,9.11,0,0,0,99.18,177.76Z" transform="translate(-25 -20.09)"/><path class="cls-11" d="M96.08,189.49c-2,3.88-4.81,6.23-7.63,5.94s-5-3.11-6.25-7.29A7.53,7.53,0,0,1,96.08,189.49Z" transform="translate(-25 -20.09)"/><path class="cls-6" d="M88.93,197.28a6.42,6.42,0,0,1-.66,0c-3.48-.36-6.33-3.49-7.82-8.59a31.41,31.41,0,0,1-.88-11.78c0-.28.06-0.54,0.09-0.81a1.82,1.82,0,0,1,1.92-1.6,7.25,7.25,0,0,0,7.68-6.66h0a1.82,1.82,0,0,1,3.64.31h0a7.24,7.24,0,0,0,6.48,7.85,1.82,1.82,0,0,1,1.63,1.93c0,0.38-.06.77-0.1,1.16a31.42,31.42,0,0,1-3.21,11.3C95.37,194.78,92.2,197.28,88.93,197.28Zm-5.8-19.21a27.64,27.64,0,0,0,.83,9.57c1,3.55,2.78,5.78,4.68,6s4.09-1.66,5.83-5a27.82,27.82,0,0,0,2.74-9.4A10.84,10.84,0,0,1,90.56,174,10.86,10.86,0,0,1,83.13,178.06Z" transform="translate(-25 -20.09)"/><path class="cls-6" d="M49.41,162.22c-1.47-.31-2.83-0.67-4.19-1s-2.68-.71-4-1-2.66-.6-4-0.88-2.72-.44-4.21-0.71a10.74,10.74,0,0,1,4.33-1.08,15.47,15.47,0,0,1,4.44.45,17.85,17.85,0,0,1,4.13,1.59A12.93,12.93,0,0,1,49.41,162.22Z" transform="translate(-25 -20.09)"/><path class="cls-6" d="M49.62,172.65c-1.49.11-2.91,0.14-4.31,0.17s-2.77.06-4.14,0.11-2.72.15-4.1,0.26-2.74.33-4.25,0.48a10.74,10.74,0,0,1,3.86-2.23,15.48,15.48,0,0,1,4.39-.79,17.86,17.86,0,0,1,4.41.39A12.93,12.93,0,0,1,49.62,172.65Z" transform="translate(-25 -20.09)"/><path class="cls-6" d="M53.31,182.06c-1.32.7-2.61,1.3-3.88,1.89s-2.51,1.17-3.75,1.77S43.26,187,42,187.61s-2.37,1.41-3.69,2.15a10.74,10.74,0,0,1,2.64-3.6,15.47,15.47,0,0,1,3.7-2.49,17.85,17.85,0,0,1,4.19-1.42A12.94,12.94,0,0,1,53.31,182.06Z" transform="translate(-25 -20.09)"/><path class="cls-6" d="M133.23,169.84a12.93,12.93,0,0,1,4.21-1.39,17.86,17.86,0,0,1,4.43-.16,15.48,15.48,0,0,1,4.34,1,10.74,10.74,0,0,1,3.74,2.43c-1.5-.22-2.84-0.52-4.21-0.7s-2.71-.37-4.08-0.48-2.74-.23-4.13-0.33S134.72,170,133.23,169.84Z" transform="translate(-25 -20.09)"/><path class="cls-6" d="M129.62,179.64a12.93,12.93,0,0,1,4.43-.18,17.85,17.85,0,0,1,4.3,1.07,15.47,15.47,0,0,1,3.9,2.18,10.74,10.74,0,0,1,2.93,3.37c-1.38-.63-2.58-1.28-3.86-1.83s-2.5-1.1-3.79-1.58-2.57-1-3.88-1.45S131,180.23,129.62,179.64Z" transform="translate(-25 -20.09)"/><path class="cls-6" d="M123.07,187.33a12.94,12.94,0,0,1,4.12,1.62,17.85,17.85,0,0,1,3.5,2.71,15.47,15.47,0,0,1,2.69,3.56,10.74,10.74,0,0,1,1.32,4.26c-1-1.13-1.85-2.22-2.79-3.23s-1.85-2-2.83-3-2-1.92-3-2.9S124.09,188.43,123.07,187.33Z" transform="translate(-25 -20.09)"/><path class="cls-6" d="M99.86,269.7l-0.17-.29-0.12-.25a4.93,4.93,0,0,1-.17-0.48,5.5,5.5,0,0,1-.19-1,7.58,7.58,0,0,1,.05-1.88,10.71,10.71,0,0,1,.4-1.8,9.33,9.33,0,0,1,.72-1.68,0.18,0.18,0,0,1,.33,0h0c0.07,0.3.13,0.59,0.18,0.88s0.11,0.57.16,0.85c0.11,0.56.2,1.11,0.32,1.64l0.35,1.54c0.06,0.24.11,0.49,0.15,0.72l0.06,0.35c0,0.05,0,.11,0,0.16s0,0.12,0,.11A1.18,1.18,0,0,1,99.86,269.7Z" transform="translate(-25 -20.09)"/><path class="cls-6" d="M106.15,269.82a5.49,5.49,0,0,1-.45-1.89,9.17,9.17,0,0,1,.08-1.88,10.63,10.63,0,0,1,1.08-3.57,0.18,0.18,0,0,1,.33,0h0c0.15,0.61.25,1.19,0.37,1.77s0.23,1.14.34,1.69,0.25,1.09.34,1.63a9.08,9.08,0,0,1,.17,1.57v0.17A1.19,1.19,0,0,1,106.15,269.82Z" transform="translate(-25 -20.09)"/><path class="cls-6" d="M70,258.57c-0.08,0,0,0,0-.05l0.07-.12c0.05-.09.1-0.19,0.16-0.28s0.24-.41.36-0.63c0.24-.44.53-0.9,0.77-1.41s0.5-1,.76-1.55c0.12-.27.25-0.54,0.38-0.81s0.26-.55.41-0.83h0a0.18,0.18,0,0,1,.33,0,10.25,10.25,0,0,1,.25,1.87,11,11,0,0,1-.1,1.9,7.08,7.08,0,0,1-.51,1.91,4.89,4.89,0,0,1-.51.92A4.14,4.14,0,0,1,72,260l-0.22.21a3.73,3.73,0,0,1-.34.26A1.18,1.18,0,0,1,70,258.57Z" transform="translate(-25 -20.09)"/><path class="cls-6" d="M75.26,262c-0.07,0,0,0,0-.07l0.11-.12,0.24-.28c0.16-.2.34-0.42,0.51-0.65,0.34-.46.71-1,1-1.5s0.64-1.11,1-1.71l0.47-.91c0.15-.31.31-0.62,0.48-0.93h0a0.18,0.18,0,0,1,.33.06c0,0.36.07,0.71,0.09,1.07s0,0.72,0,1.08a11.48,11.48,0,0,1-.35,2.16,7.47,7.47,0,0,1-.87,2.11,5.29,5.29,0,0,1-.75,1,4.33,4.33,0,0,1-.49.43l-0.29.2a3.53,3.53,0,0,1-.41.21A1.18,1.18,0,1,1,75.26,262Z" transform="translate(-25 -20.09)"/><ellipse class="cls-6" cx="74.36" cy="152.11" rx="9.13" ry="6.22" transform="matrix(0.28, -0.96, 0.96, 0.28, -117.53, 160.54)"/><ellipse class="cls-4" cx="76.3" cy="150.92" rx="2.67" ry="1.82" transform="translate(-115 161.54) rotate(-73.65)"/><path class="cls-6" d="M117.34,153.16a30,30,0,0,0-3.49.66,20.89,20.89,0,0,0-3.23,1.11c-0.52.21-1,.49-1.49,0.74l-0.7.43a6.21,6.21,0,0,0-.68.46,15,15,0,0,0-2.44,2.19l-1.63-2.5a7.13,7.13,0,0,1,.89-0.16c0.28,0,.55-0.06.82-0.08a13,13,0,0,1,1.62,0,12.08,12.08,0,0,1,3.15.63,11.21,11.21,0,0,1,2.84,1.43,10.63,10.63,0,0,1,2.28,2.1,0.54,0.54,0,0,1-.65.83l-0.06,0c-0.43-.21-0.82-0.46-1.23-0.66s-0.82-.4-1.25-0.54a11.88,11.88,0,0,0-2.55-.68,12.28,12.28,0,0,0-2.58-.16c-0.43,0-.86.06-1.28,0.11l-0.62.1-0.3.06-0.14,0-0.1,0h0a1.56,1.56,0,0,1-1.59-2.51,14.42,14.42,0,0,1,3-2.81,14,14,0,0,1,1.78-1.05,14.92,14.92,0,0,1,1.91-.74,14,14,0,0,1,4-.63,12.11,12.11,0,0,1,3.92.57,0.54,0.54,0,0,1-.1,1h-0.06Z" transform="translate(-25 -20.09)"/></svg>