<svg xmlns="http://www.w3.org/2000/svg" xmlns:xlink="http://www.w3.org/1999/xlink" viewBox="0 0 250 236.87"><defs><style>.cls-1{isolation:isolate;}.cls-2{fill:#001922;mix-blend-mode:overlay;}.cls-3{fill:#fff;}.cls-4{fill:url(#Verano);}.cls-5{fill:url(#Verano-2);}.cls-6{fill:url(#Verano-3);}.cls-7{fill:url(#Verano-4);}.cls-8{fill:url(#Verano-5);}</style><radialGradient id="Verano" cx="151.99" cy="198.66" r="65.53" gradientUnits="userSpaceOnUse"><stop offset="0" stop-color="#fff"/><stop offset="0.09" stop-color="#ffedd8"/><stop offset="0.21" stop-color="#ffd5a7"/><stop offset="0.33" stop-color="#ffc17d"/><stop offset="0.46" stop-color="#ffb05b"/><stop offset="0.59" stop-color="#ffa340"/><stop offset="0.72" stop-color="#ff9a2d"/><stop offset="0.86" stop-color="#ff9522"/><stop offset="1" stop-color="#ff931e"/></radialGradient><radialGradient id="Verano-2" cx="70.95" cy="142.22" r="35.17" gradientTransform="translate(97.25 -14.52) rotate(36.04)" xlink:href="#Verano"/><radialGradient id="Verano-3" cx="233.01" cy="142.2" r="35.17" gradientTransform="translate(210.99 -129.89) rotate(53.98)" xlink:href="#Verano"/><radialGradient id="Verano-4" cx="117.64" cy="84.39" r="37.09" gradientTransform="translate(16.63 -19.33) rotate(10.11)" xlink:href="#Verano"/><radialGradient id="Verano-5" cx="186.31" cy="84.38" r="37.09" gradientTransform="translate(236.74 -113.83) rotate(79.91)" xlink:href="#Verano"/></defs><title>logoGatunos</title><g class="cls-1"><g id="Capa_1" data-name="Capa 1"><path class="cls-2" d="M259,107.56c-11.93-8.67-29-6.31-43.82,4.53a76.27,76.27,0,0,0,4.13-14.6c5.22-29.37-6.91-55.26-27.63-58.95-18.15-3.23-36,11.8-43.65,35.32-7.67-23.51-25.52-38.54-43.66-35.3C93.87,40.42,85,48.33,80,60.25c-4.49,10.74-5.66,24-3.29,37.26a75.92,75.92,0,0,0,4.13,14.6C66,101.27,49,98.91,37,107.59c-16.35,11.9-16,39.3.79,62.39,7.59,10.43,17.48,18.38,27.85,22.39A38.07,38.07,0,0,0,83.5,195c-15.71,17-22.56,34.92-18.83,49.92C67.41,256,75.5,264.09,86.85,267.23c14.2,3.92,26.56-2.52,37.46-8.2,8.07-4.2,15.68-8.17,23.48-8h0.62c7.66-.15,15.28,3.82,23.35,8,10.66,5.55,22.71,11.83,36.51,8.44l1-.25c11.36-3.14,19.44-11.28,22.18-22.34,3.72-15-3.12-32.87-18.82-49.89a35.65,35.65,0,0,0,12.35-.9c11.78-2.9,23.95-11.31,33.28-24.14C275,146.86,275.35,119.45,259,107.56Z" transform="translate(-25 -31.57)"/><path class="cls-3" d="M263,101c-11.93-8.67-29-6.31-43.82,4.53A76.29,76.29,0,0,0,223.26,91c5.22-29.37-6.91-55.26-27.63-58.95-18.15-3.23-36,11.8-43.65,35.32C144.3,43.81,126.45,28.78,108.31,32,97.83,33.88,89,41.79,84,53.71c-4.49,10.74-5.66,24-3.29,37.26a75.92,75.92,0,0,0,4.13,14.6C70,94.73,52.93,92.37,41,101.05c-16.35,11.9-16,39.3.79,62.39,7.59,10.43,17.48,18.38,27.85,22.39a38.07,38.07,0,0,0,17.82,2.61c-15.71,17-22.56,34.92-18.83,49.92,2.74,11.05,10.83,19.19,22.19,22.33,14.2,3.92,26.56-2.52,37.46-8.2,8.07-4.2,15.68-8.17,23.48-8h0.62c7.66-.15,15.28,3.82,23.35,8,10.66,5.55,22.71,11.83,36.51,8.44l1-.25c11.36-3.14,19.44-11.28,22.18-22.34,3.72-15-3.12-32.87-18.82-49.89a35.64,35.64,0,0,0,12.35-.9c11.78-2.9,23.95-11.31,33.28-24.14C279,140.32,279.31,112.91,263,101Z" transform="translate(-25 -31.57)"/><path class="cls-4" d="M152,144.56c-24.55.65-30.22,23.63-52.38,44.54-32.52,30.69-26.3,57.28-6.36,62.8s36.91-17,58.55-16.56h0.4c21.64-.43,38.61,22.06,58.56,16.54s26.15-32.12-6.37-62.79C182.21,168.18,176.53,145.2,152,144.56Z" transform="translate(-25 -31.57)"/><ellipse class="cls-5" cx="70.95" cy="142.22" rx="26.94" ry="41.79" transform="translate(-95.09 37.39) rotate(-36.04)"/><ellipse class="cls-6" cx="233.01" cy="142.2" rx="41.79" ry="26.94" transform="translate(-44.03 215.46) rotate(-53.98)"/><ellipse class="cls-7" cx="117.64" cy="84.39" rx="28.41" ry="44.07" transform="translate(-37.98 -9.62) rotate(-10.11)"/><ellipse class="cls-8" cx="186.31" cy="84.38" rx="44.07" ry="28.41" transform="matrix(0.18, -0.98, 0.98, 0.18, 45.6, 221.45)"/></g></g></svg>